<svg xmlns="http://www.w3.org/2000/svg" xmlns:xlink="http://www.w3.org/1999/xlink" xml:space="preserve" width="220" height="220" x="0px" y="0px" viewBox="0 0 220 220"><defs><linearGradient id="a"><stop offset="0" style="stop-color:#00a495;stop-opacity:1"/><stop offset="1" style="stop-color:#13ad65;stop-opacity:1"/></linearGradient><linearGradient xlink:href="#a" id="b" x1="0" x2="220" y1="110" y2="110" gradientUnits="userSpaceOnUse"/></defs><linearGradient id="c" x1="10.0005" x2="230" y1="120" y2="120" gradientTransform="matrix(1 0 0 1.00002 -10 -10.002)" gradientUnits="userSpaceOnUse"><stop offset="0" style="stop-color:#00a495;stop-opacity:1"/><stop offset="1" style="stop-color:#13ad65;stop-opacity:1"/></linearGradient><path d="M181.827 129.173c-5.55.04-10.554-2.319-14.067-6.082l-33.124 14.015 4.554 10.757a5.079 5.079 0 0 1-2.694 6.656 5.084 5.084 0 0 1-6.66-2.704l-11.281-26.649-44.758 18.94c.103.773.174 1.556.18 2.342.078 10.514-8.408 19.126-18.92 19.212-10.504.074-19.125-8.405-19.201-18.919-.08-10.509 8.405-19.121 18.917-19.208 6.093-.045 11.53 2.796 15.056 7.237l8.284-3.509-16.47-38.905c-.611.063-1.227.105-1.845.105-10.512.085-19.13-8.406-19.21-18.915-.08-10.507 8.406-19.126 18.917-19.206 10.51-.075 19.124 8.411 19.205 18.919.046 6.267-2.964 11.845-7.62 15.353l16.377 38.686 27.127-11.482-3.525-8.33c-.846.119-1.702.213-2.582.219-10.51.081-19.125-8.405-19.207-18.912-.08-10.515 8.405-19.127 18.917-19.207 10.51-.075 19.127 8.41 19.207 18.912.044 6.003-2.71 11.384-7.036 14.91l10.309 24.345 32.36-13.698a19.097 19.097 0 0 1-.411-3.791c-.078-10.515 8.405-19.127 18.916-19.208 10.51-.081 19.124 8.405 19.203 18.912.078 10.517-8.411 19.133-18.918 19.205z" style="display:inline;fill:#fff;fill-opacity:1"/><linearGradient id="d" x1="61.754902" x2="77.529297" y1="83.348602" y2="83.348602" gradientTransform="translate(-10 -10.002)" gradientUnits="userSpaceOnUse"><stop offset="0" style="stop-color:#00a69c"/><stop offset="1" style="stop-color:#28b472"/></linearGradient><linearGradient id="e" x1="57.023899" x2="72.797401" y1="156.53999" y2="156.53999" gradientTransform="translate(-10 -10.002)" gradientUnits="userSpaceOnUse"><stop offset="0" style="stop-color:#00a69c"/><stop offset="1" style="stop-color:#28b472"/></linearGradient><linearGradient id="f" x1="110.4482" x2="126.2231" y1="98.585899" y2="98.585899" gradientTransform="translate(-10 -10.002)" gradientUnits="userSpaceOnUse"><stop offset="0" style="stop-color:#00a69c"/><stop offset="1" style="stop-color:#28b472"/></linearGradient><linearGradient id="g" x1="183.793" x2="199.56841" y1="120.0591" y2="120.0591" gradientTransform="translate(-10 -10.002)" gradientUnits="userSpaceOnUse"><stop offset="0" style="stop-color:#00a69c"/><stop offset="1" style="stop-color:#28b472"/></linearGradient><g style="fill-opacity:1;fill:url(#b)"><path fill="url(#c)" d="M110.001 0C49.248 0 0 49.244 0 110c0 60.755 49.247 110 110.001 110C170.756 220 220 170.755 220 110 220 49.244 170.756 0 110.001 0Zm71.82 129.118c-5.549.04-10.554-2.319-14.067-6.082l-33.124 14.015 4.554 10.758a5.08 5.08 0 0 1-2.694 6.656 5.084 5.084 0 0 1-6.659-2.704l-11.282-26.65-44.758 18.94c.103.774.174 1.557.18 2.343.078 10.514-8.408 19.126-18.919 19.212-10.505.074-19.126-8.405-19.202-18.92-.08-10.509 8.405-19.12 18.917-19.208 6.093-.045 11.531 2.796 15.056 7.237l8.284-3.509-16.47-38.905c-.611.063-1.227.105-1.845.105C49.28 92.49 40.663 84 40.583 73.49c-.08-10.507 8.405-19.126 18.916-19.206 10.511-.075 19.124 8.411 19.205 18.92.046 6.266-2.964 11.845-7.62 15.353l16.377 38.686 27.127-11.482-3.525-8.33c-.846.119-1.702.213-2.582.219-10.51.081-19.125-8.405-19.207-18.912-.08-10.516 8.405-19.128 18.917-19.208 10.51-.075 19.127 8.41 19.207 18.913.044 6.003-2.709 11.384-7.036 14.91l10.309 24.345L163.032 114a19.098 19.098 0 0 1-.412-3.791c-.078-10.515 8.405-19.127 18.916-19.208 10.51-.081 19.124 8.405 19.203 18.912.078 10.517-8.411 19.133-18.918 19.205z" style="fill:url(#b);stroke-width:1.00001;fill-opacity:1"/><path fill="url(#d)" d="M67.529 73.288c-.034-4.35-3.597-7.863-7.943-7.827-4.353.033-7.865 3.599-7.83 7.943.032 4.354 3.597 7.863 7.948 7.829 4.346-.029 7.86-3.596 7.825-7.945z" style="fill:url(#b);fill-opacity:1"/><path fill="url(#e)" d="M54.853 138.645c-4.353.045-7.866 3.602-7.829 7.948a7.895 7.895 0 0 0 7.946 7.837c4.344-.033 7.857-3.606 7.827-7.949-.033-4.344-3.598-7.864-7.944-7.836z" style="fill:url(#b);fill-opacity:1"/><path fill="url(#f)" d="M116.223 88.526c-.032-4.344-3.6-7.858-7.946-7.83-4.353.039-7.861 3.601-7.829 7.95.03 4.349 3.601 7.858 7.946 7.825 4.353-.031 7.861-3.596 7.829-7.945z" style="fill:url(#b);fill-opacity:1"/><path fill="url(#g)" d="M181.618 102.168c-4.349.035-7.855 3.601-7.825 7.951.031 4.348 3.595 7.855 7.947 7.827 4.346-.033 7.857-3.594 7.829-7.948-.04-4.345-3.605-7.859-7.951-7.83z" style="fill:url(#b);fill-opacity:1"/></g></svg>